<?xml version="1.0" standalone="no"?>
<!DOCTYPE svg PUBLIC "-//W3C//DTD SVG 20010904//EN"
 "http://www.w3.org/TR/2001/REC-SVG-20010904/DTD/svg10.dtd">
<svg version="1.0" xmlns="http://www.w3.org/2000/svg"
 width="428.000000pt" height="428.000000pt" viewBox="0 0 428.000000 428.000000"
 preserveAspectRatio="xMidYMid meet">
<metadata>
Created by potrace 1.11, written by Peter Selinger 2001-2013
</metadata>
<g transform="translate(0.000000,428.000000) scale(0.100000,-0.100000)"
fill="#000000" stroke="none">
<path d="M1776 4122 c-4 -4 -42 -8 -84 -9 -42 -1 -79 -2 -82 -3 -3 -1 -13 -2
-22 -1 -10 1 -18 -2 -18 -7 0 -5 -16 -8 -35 -7 -19 2 -35 -1 -35 -5 0 -5 -9
-6 -20 -3 -13 3 -20 0 -20 -8 0 -11 -2 -11 -10 1 -9 13 -10 13 -10 0 0 -13 -1
-13 -10 0 -6 9 -10 10 -10 3 0 -6 -9 -10 -20 -8 -11 2 -20 -2 -20 -8 0 -7 -4
-6 -10 3 -5 8 -10 10 -10 4 0 -7 -13 -10 -30 -9 -16 1 -27 -1 -24 -6 4 -8 -16
-13 -38 -10 -4 0 -23 -6 -42 -14 -20 -9 -36 -12 -36 -8 0 5 -6 1 -13 -7 -7 -8
-23 -16 -36 -18 -13 -1 -30 -10 -37 -20 -11 -14 -13 -14 -14 -2 0 12 -2 12 -9
2 -4 -8 -12 -14 -17 -14 -5 0 -26 -9 -46 -19 -21 -11 -38 -17 -38 -13 0 3 -7
-2 -16 -10 -8 -9 -25 -16 -36 -16 -12 0 -18 -3 -15 -7 10 -9 -43 -34 -56 -26
-5 3 -7 1 -4 -5 4 -6 -12 -19 -38 -32 -25 -12 -45 -26 -45 -31 0 -5 -7 -9 -15
-9 -8 0 -15 -5 -15 -11 0 -5 -4 -8 -8 -5 -5 3 -15 -4 -22 -15 -8 -10 -18 -19
-23 -19 -5 0 -14 -6 -22 -12 -7 -7 -27 -24 -43 -37 -17 -14 -29 -28 -26 -33 5
-7 -10 -12 -28 -9 -5 0 -8 -4 -8 -9 0 -6 -13 -23 -29 -39 -16 -15 -36 -40 -46
-54 -9 -15 -22 -24 -28 -20 -5 3 -7 1 -3 -5 3 -6 -2 -17 -13 -24 -11 -8 -23
-26 -26 -41 -4 -15 -11 -27 -17 -27 -5 0 -7 -4 -3 -9 3 -5 1 -12 -5 -16 -6 -4
-8 -11 -5 -16 4 -5 2 -9 -3 -9 -5 0 -14 -12 -20 -26 -8 -17 -9 -23 -1 -19 6 4
4 -6 -4 -21 -8 -16 -12 -35 -9 -43 2 -8 1 -11 -4 -8 -8 5 -8 -34 0 -123 2 -19
4 -37 6 -40 1 -3 2 -8 1 -12 0 -5 3 -8 9 -8 5 0 10 -9 10 -20 0 -11 5 -20 11
-20 5 0 8 -4 4 -9 -3 -5 5 -18 18 -28 13 -10 22 -24 19 -31 -2 -6 4 -12 13
-12 9 0 13 -4 10 -10 -3 -5 1 -10 9 -10 9 0 16 -6 16 -14 0 -8 9 -18 20 -21
11 -4 18 -10 16 -14 -3 -4 4 -15 15 -24 10 -9 19 -15 19 -12 0 3 9 -3 19 -12
11 -9 18 -20 15 -25 -3 -4 1 -8 8 -8 7 0 19 -9 26 -20 7 -11 19 -20 27 -20 8
0 15 -5 15 -11 0 -5 5 -7 10 -4 5 3 10 1 10 -4 0 -6 6 -11 14 -11 8 0 16 -7
20 -15 3 -8 10 -15 17 -15 6 0 23 -9 39 -20 15 -11 30 -17 34 -13 3 3 6 2 6
-4 0 -6 11 -14 25 -17 14 -4 25 -11 25 -17 0 -6 4 -8 10 -4 5 3 18 -3 28 -13
10 -10 24 -16 30 -14 7 2 12 -1 12 -8 0 -6 5 -8 10 -5 6 3 10 2 10 -3 0 -6 7
-13 16 -16 8 -3 12 -2 9 4 -3 5 14 -2 37 -15 24 -14 51 -25 61 -25 9 0 17 -5
17 -12 0 -6 3 -9 6 -5 4 3 23 -2 44 -13 21 -11 40 -16 44 -13 3 4 6 0 6 -7 0
-7 3 -10 7 -7 3 4 12 2 20 -4 10 -9 13 -8 13 2 1 10 4 9 14 -3 7 -10 16 -15
19 -11 4 3 7 1 7 -5 0 -6 9 -9 20 -7 11 2 20 0 20 -6 0 -5 11 -9 25 -9 14 0
37 -7 50 -16 18 -12 25 -13 25 -4 0 10 3 10 14 1 8 -7 27 -14 42 -17 15 -3 32
-8 38 -12 6 -3 17 -8 24 -9 20 -5 36 -10 52 -16 8 -3 29 -8 45 -10 17 -2 37
-7 45 -10 8 -4 29 -8 45 -11 17 -2 30 -5 30 -6 0 -2 36 -10 58 -12 9 -1 17 -5
17 -8 0 -3 12 -6 28 -7 15 -1 34 -3 42 -6 49 -13 70 -18 155 -34 17 -3 33 -10
36 -15 4 -7 8 -7 10 1 2 6 14 8 26 5 13 -4 20 -11 17 -16 -4 -6 3 -5 14 1 14
7 23 8 27 1 4 -6 10 -8 15 -5 5 3 19 1 31 -6 17 -9 20 -8 13 3 -6 10 -4 10 9
-1 10 -8 20 -11 24 -8 3 4 15 2 26 -4 15 -8 18 -8 12 1 -6 9 -2 9 15 0 12 -6
28 -9 36 -6 8 3 14 1 14 -3 0 -5 8 -8 18 -6 9 1 23 -2 30 -8 8 -6 12 -6 12 3
0 10 3 10 15 0 8 -7 15 -9 15 -5 0 4 7 2 15 -5 12 -10 15 -10 15 1 0 9 3 10 8
3 4 -6 17 -10 30 -9 13 1 25 -2 27 -6 3 -4 14 -5 25 -2 11 3 26 1 33 -4 6 -5
25 -8 42 -7 16 2 33 -2 37 -9 6 -9 8 -9 8 0 0 7 9 10 23 7 12 -3 36 -6 53 -8
16 -1 36 -6 42 -10 7 -4 12 -2 12 4 0 7 5 8 13 3 6 -4 35 -9 62 -10 76 -4 148
-12 153 -18 3 -2 13 0 22 5 13 7 21 5 30 -5 10 -12 16 -13 26 -4 11 9 14 8 14
-2 0 -9 3 -10 11 -2 7 7 21 8 40 3 16 -5 29 -6 29 -2 0 4 5 0 10 -8 5 -8 10
-10 10 -3 0 12 38 11 58 -1 6 -3 14 -2 17 4 4 7 11 8 18 2 7 -6 23 -9 37 -8
14 1 30 -2 37 -6 6 -5 13 -5 16 -1 3 4 28 6 56 5 33 -3 49 -8 44 -15 -3 -5 -1
-7 5 -3 20 12 92 15 92 3 0 -8 3 -8 11 0 12 12 39 6 51 -11 5 -8 8 -8 8 0 0 5
14 9 30 8 17 -1 30 3 30 9 0 7 5 4 11 -6 7 -12 15 -15 26 -8 9 5 29 5 44 1 15
-5 30 -5 34 -2 3 4 10 0 15 -8 6 -9 10 -10 10 -3 0 10 34 12 65 3 21 -5 36 0
29 11 -4 8 -9 7 -15 -2 -7 -11 -9 -11 -9 2 0 9 -7 20 -16 23 -8 3 -12 2 -9 -4
3 -6 1 -10 -4 -10 -6 0 -11 6 -11 13 0 8 -4 7 -10 -3 -8 -12 -10 -12 -10 -1 0
8 -3 11 -7 8 -3 -4 -12 -2 -20 4 -9 8 -13 8 -13 0 0 -7 -8 -8 -26 -1 -19 8
-23 7 -18 -3 6 -9 5 -9 -8 1 -8 6 -41 14 -73 16 -33 3 -62 11 -66 18 -7 11 -9
10 -9 -1 0 -11 -3 -11 -17 0 -14 12 -16 12 -8 0 6 -11 5 -12 -6 -5 -8 4 -23
10 -34 11 -10 2 -22 8 -26 14 -4 8 -8 7 -12 -2 -4 -9 -6 -10 -6 -2 -1 7 -7 10
-15 7 -8 -3 -31 -1 -52 5 -22 6 -54 11 -71 13 -18 1 -33 5 -33 9 0 3 -18 5
-40 5 -22 -1 -40 1 -40 5 0 4 -11 7 -25 8 -14 1 -36 2 -50 3 -14 1 -25 6 -25
11 0 4 -13 6 -30 3 -16 -2 -30 -1 -30 4 0 4 -11 8 -25 9 -14 1 -36 1 -50 2
-14 1 -25 5 -25 9 0 5 -9 9 -20 9 -11 1 -29 1 -40 2 -11 0 -20 4 -20 9 0 5 -9
7 -20 5 -11 -2 -20 -1 -20 3 0 4 -10 8 -22 8 -13 1 -43 5 -68 9 -25 4 -51 8
-57 8 -7 0 -13 4 -13 8 0 4 -9 6 -20 4 -11 -2 -20 0 -20 5 0 4 -11 7 -25 5
-14 -1 -25 1 -25 6 0 5 -7 6 -15 3 -9 -4 -15 0 -15 7 0 12 -2 12 -9 0 -6 -9
-11 -10 -15 -2 -4 6 -12 9 -17 6 -5 -4 -9 -1 -9 5 0 6 -3 9 -7 7 -5 -3 -19 0
-33 6 -14 5 -34 11 -45 14 -47 9 -60 11 -60 13 0 1 -8 4 -50 14 -11 2 -31 8
-45 14 -14 5 -31 7 -37 5 -7 -3 -13 -1 -13 5 0 5 -6 9 -12 10 -26 1 -72 13
-88 22 -10 5 -20 6 -24 3 -3 -3 -6 -2 -6 3 0 5 -10 10 -22 11 -11 1 -24 6 -27
10 -6 8 -24 14 -53 16 -10 1 -18 5 -18 10 0 4 -4 6 -9 2 -5 -3 -13 0 -16 6 -4
5 -13 8 -21 5 -8 -3 -14 -1 -14 4 0 6 -11 10 -25 10 -14 0 -25 4 -25 8 0 4
-12 9 -27 10 -16 1 -30 7 -31 12 -2 6 -8 8 -13 4 -5 -3 -9 0 -9 5 0 6 -5 11
-11 11 -5 0 -7 -6 -3 -12 7 -11 -33 17 -46 33 -3 3 -15 5 -28 4 -13 -1 -26 5
-31 12 -4 8 -17 15 -29 16 -12 1 -22 5 -22 9 0 4 -9 8 -20 8 -11 0 -20 5 -20
10 0 6 -6 10 -14 10 -7 0 -26 10 -42 22 -16 13 -25 16 -20 8 4 -8 0 -6 -8 4
-9 11 -16 16 -16 12 0 -4 -14 3 -32 15 -18 14 -28 17 -24 8 4 -7 0 -5 -8 5 -9
11 -16 17 -16 13 0 -8 -14 2 -51 36 -10 9 -23 17 -29 17 -5 0 -10 5 -10 12 0
6 -3 9 -6 5 -7 -7 -16 0 -104 85 -39 37 -70 71 -70 76 0 6 -7 13 -16 16 -8 3
-12 10 -9 16 3 5 -3 10 -15 10 -12 0 -18 5 -15 10 3 6 2 10 -2 10 -5 0 -16 16
-25 35 -8 19 -10 32 -4 28 6 -4 6 -1 -1 9 -7 8 -10 18 -6 21 3 4 2 7 -4 7 -16
0 -7 106 11 145 10 19 21 35 27 35 6 0 8 4 4 9 -3 5 3 12 14 16 11 3 22 13 25
21 3 8 10 12 16 9 5 -3 10 -2 10 3 0 14 138 84 150 77 6 -3 10 -1 10 5 0 6 4
9 9 5 5 -3 13 0 16 6 4 5 13 8 21 5 8 -3 14 -1 14 5 0 6 4 8 9 4 5 -3 12 -1
15 3 3 5 21 9 41 10 19 1 43 5 53 10 9 5 28 8 42 7 14 -1 30 0 35 4 18 10 295
7 295 -4 0 -5 5 -3 10 5 6 9 10 11 10 3 0 -7 7 -10 17 -6 9 4 14 2 10 -3 -3
-6 7 -9 24 -8 16 1 29 -1 29 -5 0 -3 16 -6 35 -5 19 1 35 -2 35 -6 0 -7 36
-17 78 -22 6 -1 12 -6 12 -11 0 -5 7 -6 15 -3 9 3 18 -1 21 -8 3 -8 14 -13 25
-11 10 2 19 -1 19 -7 0 -5 7 -8 15 -4 8 3 18 -2 23 -10 5 -8 18 -16 30 -17 12
-1 22 -5 22 -9 0 -4 7 -4 17 -1 11 4 14 3 9 -5 -4 -7 2 -16 17 -21 13 -5 31
-17 40 -26 9 -9 26 -17 37 -18 11 -1 20 -8 20 -16 0 -8 3 -12 6 -8 5 5 27 -10
59 -40 8 -7 19 -13 25 -13 6 0 8 -4 5 -10 -3 -5 -1 -10 5 -10 16 0 40 -26 32
-35 -4 -4 -2 -5 3 -3 6 1 21 -5 35 -15 13 -9 21 -17 16 -17 -5 0 5 -13 22 -29
16 -16 28 -32 24 -35 -3 -3 3 -6 13 -6 10 0 16 -3 12 -6 -7 -8 24 -44 34 -39
4 3 10 -2 13 -11 4 -10 1 -13 -7 -9 -6 3 -2 -2 11 -11 12 -9 22 -22 22 -29 0
-7 7 -16 16 -19 8 -3 12 -10 9 -16 -3 -5 -1 -10 5 -10 6 0 9 -4 6 -9 -3 -5 1
-14 9 -21 8 -7 15 -19 15 -26 0 -8 3 -14 8 -14 7 0 43 -74 41 -87 0 -3 6 -10
14 -15 9 -4 14 -17 12 -28 -2 -11 1 -20 7 -20 5 0 8 -6 5 -14 -3 -8 1 -17 8
-20 8 -3 12 -12 9 -21 -3 -8 -1 -15 6 -15 6 0 8 -4 5 -10 -3 -5 -1 -10 6 -10
6 0 9 -8 6 -20 -3 -11 -1 -20 5 -20 6 0 8 -9 5 -21 -3 -12 0 -22 9 -26 8 -3
14 -11 14 -19 0 -12 26 -19 53 -15 4 0 7 -4 7 -10 0 -8 5 -8 15 1 11 9 15 9
15 1 0 -7 4 -10 9 -6 5 3 12 1 15 -4 4 -5 20 -8 36 -6 17 2 30 1 30 -4 0 -4
21 -8 48 -8 50 -1 101 -9 110 -17 2 -3 13 -1 22 4 12 7 21 6 28 -3 7 -8 30
-12 56 -11 25 1 44 -2 41 -6 -3 -5 3 -6 13 -3 18 4 23 28 9 49 -3 6 -4 23 -1
37 3 18 0 27 -8 27 -9 0 -8 3 2 10 8 5 10 10 3 10 -6 0 -10 11 -8 25 1 14 -1
28 -6 30 -4 3 -8 13 -8 23 0 17 -8 57 -11 57 -1 0 -4 11 -5 25 -4 27 -13 65
-15 65 -1 0 -4 11 -6 25 -2 13 -8 27 -12 30 -4 3 -9 14 -10 25 -2 11 -9 23
-15 27 -9 6 -8 8 1 8 9 0 9 6 -3 23 -8 13 -12 27 -8 30 3 4 1 7 -6 7 -8 0 -11
7 -7 15 3 9 -1 18 -9 21 -8 4 -12 10 -9 15 3 5 1 9 -5 9 -6 0 -8 6 -5 13 2 7
-5 23 -16 35 -11 12 -20 25 -20 29 0 19 -12 43 -21 43 -6 0 -8 4 -4 9 3 5 -2
16 -10 25 -9 8 -15 18 -15 21 2 10 -34 65 -43 65 -4 0 -5 5 -2 10 3 6 3 10 -2
10 -4 0 -21 23 -38 50 -16 28 -33 50 -37 50 -4 0 -8 7 -8 16 0 8 -4 12 -10 9
-6 -3 -10 1 -10 9 0 9 -4 16 -10 16 -5 0 -10 4 -10 10 0 5 -25 35 -55 66 -30
32 -55 61 -55 66 0 4 -5 8 -11 8 -6 0 -36 26 -67 58 -30 31 -51 50 -47 42 4
-8 -2 -5 -14 8 -12 12 -26 22 -31 22 -6 0 -10 8 -10 18 0 14 -2 15 -10 2 -6
-9 -10 -10 -10 -3 0 7 -16 23 -35 36 -19 13 -32 27 -28 31 4 4 0 4 -8 1 -9 -3
-22 1 -29 10 -7 8 -19 15 -26 15 -8 0 -14 4 -14 9 0 5 -11 12 -25 15 -14 4
-25 11 -25 17 0 6 -4 7 -10 4 -5 -3 -10 -2 -10 3 0 8 -26 20 -46 20 -3 1 -11
8 -18 18 -7 9 -18 14 -24 10 -7 -4 -12 -2 -12 5 0 7 -3 9 -7 6 -3 -4 -12 1
-20 11 -9 10 -12 11 -7 2 5 -10 -1 -8 -16 5 -13 11 -20 14 -16 7 7 -11 4 -11
-15 0 -13 7 -27 18 -31 23 -4 6 -8 7 -8 2 0 -4 -13 -1 -30 8 -16 8 -38 15 -50
15 -11 0 -20 5 -20 12 0 6 -3 8 -7 5 -3 -4 -13 -1 -21 6 -12 9 -14 9 -9 0 6
-9 -3 -8 -27 2 -20 8 -44 15 -55 15 -11 0 -22 6 -25 13 -5 9 -7 9 -12 -1 -3
-6 -11 -9 -17 -5 -7 4 -16 8 -22 9 -5 1 -25 5 -44 9 -19 3 -39 9 -44 12 -6 4
-7 1 -2 -7 6 -9 4 -11 -5 -5 -7 5 -27 9 -44 11 -17 1 -48 4 -68 5 -21 2 -38 8
-38 14 0 5 -4 4 -9 -3 -7 -12 -48 -11 -69 2 -5 3 -12 2 -16 -2z"/>
<path d="M230 2171 c0 -5 -9 -7 -20 -4 -13 4 -20 0 -20 -9 0 -8 10 -15 23 -15
33 -2 134 -12 149 -15 7 -2 16 -7 20 -13 5 -6 8 -5 8 4 0 11 3 11 17 0 15 -12
16 -12 8 1 -8 13 -6 13 8 2 9 -8 21 -11 26 -8 5 4 12 2 15 -2 3 -5 19 -8 36
-7 16 1 30 -2 30 -7 0 -5 12 -5 26 -2 16 4 25 3 21 -2 -3 -5 10 -9 29 -8 19 1
34 -2 34 -6 0 -5 11 -7 25 -5 14 1 25 -1 25 -4 0 -4 10 -7 23 -8 12 0 40 -4
62 -8 22 -5 48 -8 58 -7 9 0 17 -3 17 -7 0 -5 12 -9 28 -9 48 -1 107 -14 114
-26 5 -8 8 -7 8 3 0 11 3 11 15 1 8 -7 22 -10 30 -6 8 3 15 1 15 -3 0 -5 8 -8
18 -6 9 1 23 -2 30 -8 6 -5 12 -6 12 -1 0 5 5 2 10 -6 8 -12 10 -12 10 -1 0 9
4 10 13 4 10 -8 33 -12 85 -16 6 0 12 -4 12 -9 0 -6 6 -8 13 -5 6 2 26 0 42
-5 26 -8 62 -15 113 -20 6 -1 12 -5 12 -9 0 -5 7 -5 17 -2 10 4 14 2 10 -4 -4
-6 6 -9 24 -8 16 1 37 -4 47 -11 12 -9 21 -9 29 -2 8 6 13 7 13 1 0 -5 6 -11
13 -12 6 -1 23 -3 37 -5 14 -2 33 -7 42 -11 9 -4 22 -3 29 1 8 5 9 3 4 -6 -6
-10 -4 -12 8 -7 9 3 19 2 22 -4 4 -5 10 -7 15 -4 5 3 22 -2 37 -12 21 -14 25
-14 18 -3 -8 13 -6 13 8 2 9 -8 20 -11 25 -8 6 3 15 -1 22 -9 7 -8 16 -12 21
-9 5 3 9 -1 9 -8 0 -9 3 -9 10 2 7 12 10 12 10 1 0 -7 6 -11 15 -8 8 4 17 2
20 -3 4 -6 14 -10 23 -10 9 0 29 -6 44 -14 20 -11 28 -11 32 -3 3 9 5 8 5 0 1
-7 13 -13 29 -13 22 0 24 -2 12 -11 -12 -9 -11 -10 7 -6 13 3 26 1 29 -4 3 -5
10 -7 15 -4 5 4 9 2 9 -2 0 -8 15 -12 58 -15 6 -1 12 -5 12 -10 0 -5 4 -7 9
-3 5 3 12 1 16 -5 4 -6 11 -8 16 -5 5 4 9 2 9 -4 0 -6 7 -8 15 -5 8 4 15 1 15
-5 0 -6 3 -10 8 -9 10 3 50 -11 102 -34 25 -12 51 -21 58 -21 6 0 12 -4 12 -9
0 -5 8 -8 18 -6 9 2 16 -2 15 -9 -2 -7 3 -10 10 -7 7 2 30 -5 51 -16 21 -10
43 -17 47 -14 5 3 9 1 9 -5 0 -5 42 -30 93 -56 50 -26 97 -53 103 -61 6 -7 13
-11 16 -8 3 3 18 -6 33 -20 16 -15 34 -26 41 -26 8 0 14 -4 14 -10 0 -5 7 -10
16 -10 8 0 12 -4 9 -10 -3 -5 -1 -10 4 -10 6 0 19 -8 29 -17 10 -10 28 -24 40
-32 11 -8 19 -18 16 -22 -2 -4 5 -10 15 -14 13 -4 18 -11 14 -22 -4 -10 -2
-14 4 -10 12 8 56 -46 69 -85 4 -10 10 -18 15 -18 5 0 6 -7 3 -15 -4 -8 -1
-22 6 -30 6 -8 9 -19 5 -25 -3 -5 0 -10 7 -10 9 0 9 -3 -2 -10 -10 -6 -11 -10
-2 -10 6 0 12 -5 12 -11 0 -5 -4 -8 -9 -4 -6 3 -6 -6 -1 -25 6 -20 5 -30 -2
-30 -6 0 -8 -3 -5 -6 7 -7 -14 -39 -57 -88 -14 -16 -26 -25 -26 -20 0 5 -5 1
-11 -9 -6 -9 -14 -15 -20 -12 -5 4 -12 -1 -15 -9 -3 -9 -10 -14 -14 -11 -5 3
-16 -2 -24 -11 -9 -8 -16 -13 -16 -10 0 3 -12 -1 -27 -9 -15 -8 -30 -12 -35
-9 -4 3 -8 0 -8 -5 0 -6 -9 -11 -21 -11 -11 0 -29 -5 -39 -10 -10 -6 -32 -11
-47 -13 -16 -2 -34 -7 -41 -11 -7 -4 -12 -5 -12 -2 0 3 -11 1 -24 -4 -15 -5
-27 -5 -34 2 -6 6 -12 6 -17 -3 -6 -8 -4 -10 5 -4 9 5 11 4 6 -4 -6 -8 -12 -9
-20 -2 -7 6 -15 8 -18 5 -13 -12 -58 -14 -58 -2 0 9 -3 10 -8 2 -7 -11 -232
-16 -232 -5 0 6 -25 8 -122 14 -21 1 -38 5 -38 9 0 5 -11 8 -24 8 -14 0 -27 4
-30 9 -3 5 -17 9 -31 10 -48 3 -55 4 -55 13 0 4 -9 8 -19 8 -11 0 -23 5 -26
10 -3 6 -17 10 -31 10 -13 0 -24 5 -24 10 0 6 -9 10 -20 10 -11 0 -20 5 -20
11 0 6 -7 8 -15 5 -9 -3 -18 1 -21 9 -4 8 -10 13 -14 10 -5 -3 -15 2 -23 10
-9 8 -21 15 -27 15 -6 0 -20 9 -32 20 -12 11 -28 20 -35 20 -7 0 -13 5 -13 10
0 6 -6 10 -13 10 -7 0 -20 9 -30 20 -9 11 -24 20 -34 20 -9 0 -13 3 -10 7 4 3
-9 17 -28 30 -19 13 -35 28 -35 33 0 6 -6 10 -14 10 -18 0 -67 60 -59 74 3 6
3 8 -1 5 -7 -7 -56 33 -56 45 0 4 -13 21 -30 39 -16 18 -30 36 -30 40 0 4 -9
17 -20 29 -11 12 -20 28 -20 35 0 8 -4 11 -10 8 -6 -3 -7 1 -4 9 4 9 -1 18
-10 22 -9 3 -14 10 -11 14 3 4 -2 13 -10 20 -8 7 -15 18 -15 25 0 6 -7 26 -16
43 -8 18 -12 37 -8 43 4 8 3 9 -4 5 -7 -4 -13 -2 -13 3 -3 26 -4 30 -11 37 -5
4 -8 16 -8 26 0 10 -5 18 -11 18 -5 0 -7 5 -3 11 3 6 0 15 -7 20 -11 7 -11 9
-1 9 9 0 10 5 3 19 -6 10 -7 21 -4 25 3 3 1 6 -6 6 -7 0 -11 6 -8 14 3 7 -2
24 -11 37 -16 22 -30 27 -89 32 -13 1 -23 5 -23 9 0 3 -13 5 -30 4 -16 -1 -30
1 -30 4 0 3 -16 7 -36 8 -20 2 -46 8 -57 13 -12 7 -17 7 -13 1 4 -6 -2 -8 -14
-5 -11 3 -17 10 -13 17 4 6 0 5 -9 -2 -12 -10 -18 -10 -23 -1 -6 8 -10 7 -16
-2 -5 -8 -9 -9 -9 -3 0 6 -11 10 -25 9 -14 -2 -28 1 -31 6 -3 6 -11 5 -20 -2
-8 -6 -14 -7 -14 -2 0 5 -19 10 -42 11 -24 2 -51 5 -60 8 -10 3 -21 -3 -28
-16 -8 -15 -8 -20 1 -20 7 0 9 -3 6 -6 -3 -4 -2 -15 4 -25 6 -13 6 -19 0 -19
-7 0 -7 -8 -1 -24 5 -13 6 -27 3 -30 -4 -3 -2 -6 4 -6 5 0 9 -18 9 -39 -1 -22
3 -37 8 -34 5 4 7 -1 3 -10 -3 -9 -2 -19 4 -23 6 -3 8 -12 5 -19 -2 -7 2 -22
10 -34 8 -11 11 -21 5 -21 -5 0 -4 -12 4 -27 8 -15 12 -30 9 -35 -3 -4 0 -8 5
-8 6 0 10 -3 9 -7 -1 -8 4 -25 24 -73 5 -14 10 -27 10 -30 0 -3 4 -11 10 -17
6 -7 8 -13 4 -13 -3 0 3 -16 14 -35 11 -20 20 -45 20 -56 0 -11 5 -17 10 -14
9 5 15 -15 11 -37 0 -5 4 -8 9 -8 6 0 10 -9 10 -21 0 -11 5 -17 10 -14 6 3 10
-1 10 -9 0 -9 5 -16 11 -16 5 0 8 -4 4 -9 -3 -5 1 -15 8 -23 7 -7 16 -21 20
-30 3 -10 11 -18 17 -18 6 0 9 -4 5 -9 -3 -5 2 -17 11 -25 8 -9 13 -16 9 -16
-3 0 4 -11 17 -24 33 -34 58 -65 58 -72 0 -4 10 -15 22 -25 11 -11 18 -19 14
-19 -4 0 -1 -6 6 -14 7 -8 16 -12 21 -9 4 2 7 -2 7 -10 0 -8 7 -17 15 -21 8
-3 15 -12 15 -21 0 -8 8 -15 17 -15 9 0 14 -3 10 -6 -7 -8 12 -28 36 -37 9 -3
17 -13 17 -20 0 -8 11 -19 25 -25 14 -6 25 -16 25 -22 0 -5 5 -10 11 -10 6 0
24 -13 39 -30 15 -16 33 -30 39 -30 6 0 11 -4 11 -10 0 -5 7 -10 15 -10 8 0
15 -7 15 -16 0 -8 5 -12 10 -9 6 3 13 0 16 -9 3 -9 12 -12 22 -9 9 4 14 2 10
-2 -8 -8 15 -25 65 -47 15 -7 27 -16 27 -20 0 -4 7 -8 15 -8 8 0 15 -3 15 -8
0 -7 73 -43 98 -48 8 -1 20 -11 28 -21 11 -14 13 -15 14 -3 1 13 2 13 13 0 16
-20 62 -46 52 -30 -4 7 4 5 17 -4 14 -9 28 -13 31 -9 4 3 7 1 7 -5 0 -10 55
-28 73 -24 4 1 7 -2 7 -7 0 -5 7 -12 16 -15 10 -4 13 -2 8 7 -4 6 1 5 12 -4
10 -9 25 -14 32 -12 6 3 12 -1 12 -8 0 -7 3 -9 7 -6 3 4 12 2 20 -4 10 -9 13
-8 13 2 0 12 2 12 9 1 4 -8 12 -13 17 -13 21 2 75 -12 80 -21 3 -5 12 -4 20 3
11 9 14 9 14 -1 0 -7 6 -10 14 -7 7 3 19 0 26 -6 10 -9 11 -9 5 3 -7 12 -6 13
6 4 8 -6 26 -10 42 -9 15 1 27 -1 27 -5 0 -4 92 -7 204 -6 112 0 202 -3 199
-7 -3 -5 4 -4 16 2 11 7 21 9 21 6 0 -3 8 -1 18 4 11 6 24 6 35 0 12 -7 19 -6
23 4 3 8 16 13 31 11 15 -1 34 1 43 6 11 6 22 5 30 -3 10 -9 11 -9 6 0 -5 9 0
13 16 13 13 0 30 6 37 13 11 10 12 9 6 -3 -8 -13 -7 -13 8 -1 9 7 17 10 17 6
0 -4 8 -1 17 6 15 12 16 12 8 -1 -8 -13 -6 -13 8 -1 9 7 24 11 32 7 9 -3 13
-2 10 4 -5 8 12 14 28 9 1 0 15 6 31 15 16 8 33 13 38 10 4 -3 8 0 8 7 0 6 8
9 20 6 11 -3 18 -1 15 3 -3 4 9 13 25 19 17 5 30 7 30 4 0 -3 7 0 15 7 8 7 15
9 15 4 0 -5 4 -4 8 3 4 6 14 13 22 15 8 2 21 9 29 16 7 7 20 11 28 8 7 -3 16
1 19 9 3 8 16 17 27 21 12 3 30 13 40 22 9 8 17 11 17 7 0 -4 8 0 19 9 10 9
28 18 40 19 13 1 20 6 17 14 -3 7 1 13 9 13 7 0 21 8 31 17 10 10 21 18 26 18
5 0 13 7 18 15 5 8 10 11 10 7 0 -5 6 -2 14 5 8 7 29 24 46 38 18 14 42 34 54
45 12 11 25 19 31 17 5 -2 7 0 3 4 -4 4 0 13 10 21 9 8 10 11 2 7 -8 -4 9 16
38 46 29 29 52 59 52 67 0 7 5 13 11 13 5 0 7 4 4 10 -3 5 -1 10 5 10 6 0 9 4
5 9 -3 5 1 16 9 24 8 8 12 17 9 21 -4 3 2 13 13 22 10 8 13 13 6 9 -16 -8 -15
3 1 20 8 8 13 35 13 69 -1 31 2 56 6 56 4 0 5 7 1 16 -3 9 -7 28 -7 43 -1 14
-7 36 -14 47 -6 12 -8 24 -5 28 3 3 1 6 -5 6 -7 0 -12 7 -12 16 0 8 -6 21 -12
29 -30 32 -63 79 -60 88 1 5 -2 6 -7 3 -5 -3 -22 9 -37 27 -16 18 -41 38 -56
46 -15 8 -25 18 -22 23 3 4 -1 8 -9 8 -8 0 -18 7 -21 16 -4 9 -9 14 -12 11 -4
-3 -15 3 -27 14 -11 10 -27 19 -34 19 -8 0 -11 5 -8 10 3 6 -3 10 -14 10 -10
0 -21 4 -23 9 -1 5 -10 11 -18 13 -14 3 -20 7 -54 36 -9 7 -19 13 -23 13 -5 1
-7 6 -5 12 2 7 -2 6 -11 -1 -11 -9 -19 -7 -36 9 -12 11 -31 22 -44 25 -12 2
-23 8 -25 14 -2 5 -10 10 -18 10 -13 0 -52 18 -64 30 -3 3 -14 6 -25 8 -11 2
-24 9 -30 16 -5 7 -18 12 -28 10 -10 -1 -23 3 -30 10 -6 7 -19 11 -29 8 -10
-2 -18 1 -18 7 0 6 -9 11 -19 11 -11 0 -23 5 -26 10 -4 6 -10 8 -15 5 -5 -3
-12 0 -15 6 -4 5 -13 8 -21 5 -7 -3 -16 -1 -19 4 -4 6 -15 10 -25 10 -11 0
-25 6 -32 13 -7 8 -20 12 -30 9 -10 -2 -18 1 -18 9 0 7 -3 9 -6 6 -4 -3 -16
-2 -27 4 -15 9 -18 8 -11 -3 5 -8 -1 -7 -19 5 -14 9 -38 17 -52 17 -14 0 -25
5 -25 12 0 6 -3 8 -7 5 -3 -4 -12 -2 -20 4 -9 9 -13 8 -13 0 0 -9 -6 -8 -22 1
-13 7 -34 14 -48 16 -13 2 -30 7 -36 13 -6 5 -14 6 -17 2 -4 -3 -13 -1 -21 6
-11 9 -15 9 -18 0 -3 -8 -8 -8 -18 2 -8 8 -28 16 -45 18 -16 1 -34 6 -40 9 -5
3 -22 6 -37 7 -14 1 -33 7 -41 13 -10 9 -16 9 -25 0 -9 -9 -12 -9 -12 1 0 8
-7 11 -20 8 -11 -3 -23 -1 -26 5 -3 5 -12 7 -19 4 -7 -2 -18 1 -25 7 -10 9
-11 9 -5 -3 6 -12 5 -13 -6 -2 -7 6 -27 12 -44 12 -17 0 -37 6 -44 13 -11 10
-12 9 -6 -2 6 -10 4 -12 -6 -5 -8 4 -18 9 -24 10 -5 1 -26 5 -45 8 -19 4 -51
8 -71 10 -20 2 -46 9 -58 15 -16 9 -21 9 -21 0 0 -8 -4 -8 -15 1 -8 6 -18 9
-24 6 -5 -3 -12 0 -14 6 -4 10 -6 10 -6 0 -1 -8 -6 -10 -13 -5 -7 4 -24 8 -38
9 -14 1 -41 5 -60 9 -19 3 -47 7 -62 7 -16 1 -28 6 -28 12 0 6 -4 5 -9 -3 -6
-9 -10 -10 -16 -2 -4 7 -16 9 -27 5 -12 -3 -18 -2 -15 3 8 13 -36 11 -45 -2
-5 -6 -8 -5 -8 2 0 7 -7 10 -15 7 -8 -3 -22 1 -31 10 -8 9 -21 13 -27 9 -16
-10 -50 -4 -59 11 -5 7 -8 8 -8 0 0 -11 -37 -13 -55 -3 -5 4 -26 6 -46 6 -19
0 -41 3 -48 7 -7 5 -15 5 -18 2 -3 -3 -15 -1 -26 5 -12 7 -17 7 -13 1 4 -6 -8
-9 -31 -7 -20 2 -39 9 -43 15 -6 9 -9 9 -14 1 -4 -6 -11 -9 -15 -7 -4 3 -28 6
-54 7 -26 2 -47 7 -47 12 0 5 -7 4 -15 -3 -12 -10 -15 -10 -15 1 0 10 -3 10
-12 1 -8 -8 -17 -8 -31 -1 -15 9 -18 8 -11 -3 6 -10 5 -11 -7 -2 -8 6 -29 11
-47 10 -17 0 -32 1 -32 4 0 4 -16 4 -36 2 -27 -3 -35 -1 -29 8 6 9 3 9 -13 1
-14 -7 -23 -8 -27 -1 -4 6 -12 7 -18 3 -19 -12 -37 -12 -37 -2 0 6 -4 7 -10 4
-5 -3 -10 0 -10 7 0 10 -2 10 -9 0 -9 -15 -13 -15 -48 -1 -15 6 -23 5 -23 -2
0 -7 -6 -6 -17 2 -14 12 -16 12 -8 0 6 -11 4 -13 -11 -7 -10 4 -24 9 -31 10
-7 1 -15 5 -18 8 -3 3 -26 4 -51 1 -35 -3 -44 -1 -38 9 5 10 4 11 -7 1 -16
-15 -43 -17 -34 -3 4 6 -2 7 -17 1 -29 -11 -37 -11 -65 0 -13 5 -23 5 -23 0z"/>
</g>
</svg>
